<?xml version="1.0" encoding="utf-8"?>
<!-- Generator: Adobe Illustrator 23.1.0, SVG Export Plug-In . SVG Version: 6.00 Build 0)  -->
<svg version="1.1" id="Layer_1" xmlns="http://www.w3.org/2000/svg" xmlns:xlink="http://www.w3.org/1999/xlink" x="0px" y="0px"
	 viewBox="0 0 1000 600" style="enable-background:new 0 0 1000 600;" xml:space="preserve">
<style type="text/css">
	.st0{fill:none;stroke:#000000;stroke-linecap:round;stroke-linejoin:round;stroke-miterlimit:10;}
	.st1{fill:none;stroke:#000000;stroke-width:2;stroke-linecap:round;stroke-linejoin:round;stroke-miterlimit:10;}
</style>
<g>
	<g>
		<path class="st0" d="M902.32,188.03"/>
	</g>
</g>
<g>
	<g>
		<path class="st0" d="M800.25,151.64"/>
	</g>
</g>
<g>
	<g>
		<path class="st0" d="M774.93,158.76"/>
	</g>
</g>
<g>
	<g>
		<path class="st0" d="M725.09,190.41"/>
	</g>
</g>
<g>
	<g>
		<path class="st0" d="M548.65,137.4"/>
	</g>
</g>
<g>
	<g>
		<path class="st0" d="M685.53,184.87"/>
	</g>
</g>
<g>
	<g>
		<g>
			<path class="st1" d="M566.83,156.15c0,1.59,0.06,3.18-0.01,4.77c-0.49,11.26-0.23,11.48,11.42,14.63
				c5.32,1.44,11.72,0.88,17.16-0.55c8.46-2.22,10.27-3.06,9.63-12.29c-0.15-2.18-0.02-4.37-0.02-6.56"/>
			<path class="st1" d="M585.91,137.66c2.98,1.09,6.03,1.54,8.93-0.04c2.79-1.52,4.13-6.27,2.38-8.29c-2.49-2.88-5.35-3.4-8.3-0.6
				c-0.71,0.67-1.21,1.57-1.81,2.37"/>
			<path class="st1" d="M563.4,146.58c0.88,4.98,5.1,6.91,9.96,7.89c3.69,0.74,7.18,2.13,10.76-0.11"/>
			<path class="st1" d="M571,134.68c-7.04,3.27-8.77,5.29-7.6,11.9"/>
			<path class="st1" d="M602.01,135.27c3.66,0.37,6.49,2.58,6.34,5.95c-0.16,3.64,1.83,8.51-3.36,10.74
				c-5.15,2.21-10.15,5.55-16.1,2.39"/>
			<path class="st1" d="M579.35,126.92c-3.37,1.49-6.64,3.43-5.25,7.72c1.17,3.6,6.48,4.62,10.07,3.12
				c2.61-1.09,0.88-3.62,2.46-4.98c-2.62-1.29-3.32-4.9-6.68-5.26"/>
			<path class="st1" d="M607.38,144.22c-5.81,3.79-12.81,4.13-19.08,6.56"/>
			<path class="st1" d="M564.44,144.22c5.45,2.74,10.93,5.34,17.3,4.77"/>
			<path class="st1" d="M589.49,159.73c0,4.97,0,9.94,0,14.91"/>
			<path class="st1" d="M582.93,161.52c0,4.37,0,8.75,0,13.12"/>
			<path class="st1" d="M588.89,141.83c1.12,2.51,0.4,5.17,0.6,7.75"/>
			<path class="st1" d="M582.93,143.62c0.66,2.34-1.88,5.22,1.19,7.16"/>
		</g>
	</g>
</g>
<g>
	<g>
		<g>
			<path class="st1" d="M663.36,207.58c0,1.59,0.06,3.18-0.01,4.77c-0.49,11.26-0.23,11.48,11.42,14.63
				c5.32,1.44,11.72,0.88,17.16-0.55c8.46-2.22,10.27-3.06,9.63-12.29c-0.15-2.18-0.02-4.37-0.02-6.56"/>
			<path class="st1" d="M682.44,189.09c2.98,1.09,6.03,1.54,8.93-0.04c2.79-1.52,4.13-6.27,2.38-8.29c-2.49-2.88-5.35-3.4-8.3-0.6
				c-0.71,0.67-1.21,1.57-1.81,2.37"/>
			<path class="st1" d="M659.93,198.01c0.88,4.98,5.1,6.91,9.96,7.89c3.69,0.74,7.18,2.13,10.76-0.11"/>
			<path class="st1" d="M667.53,186.11c-7.04,3.27-8.77,5.29-7.6,11.9"/>
			<path class="st1" d="M698.54,186.7c3.66,0.37,6.49,2.58,6.34,5.95c-0.16,3.64,1.83,8.51-3.36,10.74
				c-5.15,2.21-10.15,5.55-16.1,2.39"/>
			<path class="st1" d="M675.88,178.35c-3.37,1.49-6.64,3.43-5.25,7.72c1.17,3.6,6.48,4.62,10.07,3.12
				c2.61-1.09,0.88-3.62,2.46-4.98c-2.62-1.29-3.32-4.9-6.68-5.26"/>
			<path class="st1" d="M703.91,195.65c-5.81,3.79-12.81,4.13-19.08,6.56"/>
			<path class="st1" d="M660.97,195.65c5.45,2.74,10.93,5.34,17.3,4.77"/>
			<path class="st1" d="M686.02,211.15c0,4.97,0,9.94,0,14.91"/>
			<path class="st1" d="M679.46,212.94c0,4.37,0,8.75,0,13.12"/>
			<path class="st1" d="M685.42,193.26c1.12,2.51,0.4,5.17,0.6,7.75"/>
			<path class="st1" d="M679.46,195.05c0.66,2.34-1.88,5.22,1.19,7.16"/>
		</g>
	</g>
</g>
<g>
	<g>
		<g>
			<path class="st1" d="M662.56,295.4c0,1.59,0.06,3.18-0.01,4.77c-0.49,11.26-0.23,11.48,11.42,14.63
				c5.32,1.44,11.72,0.88,17.16-0.55c8.46-2.22,10.27-3.06,9.63-12.29c-0.15-2.18-0.02-4.37-0.02-6.56"/>
			<path class="st1" d="M681.65,276.91c2.98,1.09,6.03,1.54,8.93-0.04c2.79-1.52,4.13-6.27,2.38-8.29c-2.49-2.88-5.35-3.4-8.3-0.6
				c-0.71,0.67-1.21,1.57-1.81,2.37"/>
			<path class="st1" d="M659.14,285.83c0.88,4.98,5.1,6.91,9.96,7.89c3.69,0.74,7.18,2.13,10.76-0.11"/>
			<path class="st1" d="M666.74,273.93c-7.04,3.27-8.77,5.29-7.6,11.9"/>
			<path class="st1" d="M697.75,274.53c3.66,0.37,6.49,2.58,6.34,5.95c-0.16,3.64,1.83,8.51-3.36,10.74
				c-5.15,2.21-10.15,5.55-16.1,2.39"/>
			<path class="st1" d="M675.09,266.18c-3.37,1.49-6.64,3.43-5.25,7.72c1.17,3.6,6.48,4.62,10.07,3.12
				c2.61-1.09,0.88-3.62,2.46-4.98c-2.62-1.29-3.32-4.9-6.68-5.26"/>
			<path class="st1" d="M703.12,283.47c-5.81,3.79-12.81,4.13-19.08,6.56"/>
			<path class="st1" d="M660.18,283.47c5.45,2.74,10.93,5.34,17.3,4.77"/>
			<path class="st1" d="M685.23,298.98c0,4.97,0,9.94,0,14.91"/>
			<path class="st1" d="M678.67,300.77c0,4.37,0,8.75,0,13.12"/>
			<path class="st1" d="M684.63,281.09c1.12,2.51,0.4,5.17,0.6,7.75"/>
			<path class="st1" d="M678.67,282.88c0.66,2.34-1.88,5.22,1.19,7.16"/>
		</g>
	</g>
</g>
<g>
	<g>
		<g>
			<path class="st1" d="M575.53,247.14c0,1.59,0.06,3.18-0.01,4.77c-0.49,11.26-0.23,11.48,11.42,14.63
				c5.32,1.44,11.72,0.88,17.16-0.55c8.46-2.22,10.27-3.06,9.63-12.29c-0.15-2.18-0.02-4.37-0.02-6.56"/>
			<path class="st1" d="M594.62,228.65c2.98,1.09,6.03,1.54,8.93-0.04c2.79-1.52,4.13-6.27,2.38-8.29c-2.49-2.88-5.35-3.4-8.3-0.6
				c-0.71,0.67-1.21,1.57-1.81,2.37"/>
			<path class="st1" d="M572.11,237.57c0.88,4.98,5.1,6.91,9.96,7.89c3.69,0.74,7.18,2.13,10.76-0.11"/>
			<path class="st1" d="M579.71,225.67c-7.04,3.27-8.77,5.29-7.6,11.9"/>
			<path class="st1" d="M610.72,226.26c3.66,0.37,6.49,2.58,6.34,5.95c-0.16,3.64,1.83,8.51-3.36,10.74
				c-5.15,2.21-10.15,5.55-16.1,2.39"/>
			<path class="st1" d="M588.06,217.91c-3.37,1.49-6.64,3.43-5.25,7.72c1.17,3.6,6.48,4.62,10.07,3.12
				c2.61-1.09,0.88-3.62,2.46-4.98c-2.62-1.29-3.32-4.9-6.68-5.26"/>
			<path class="st1" d="M616.09,235.21c-5.81,3.79-12.81,4.13-19.08,6.56"/>
			<path class="st1" d="M573.15,235.21c5.45,2.74,10.93,5.34,17.3,4.77"/>
			<path class="st1" d="M598.19,250.72c0,4.97,0,9.94,0,14.91"/>
			<path class="st1" d="M591.63,252.5c0,4.37,0,8.75,0,13.12"/>
			<path class="st1" d="M597.6,232.82c1.12,2.51,0.4,5.17,0.6,7.75"/>
			<path class="st1" d="M591.63,234.61c0.66,2.34-1.88,5.22,1.19,7.16"/>
		</g>
	</g>
</g>
<g>
	<g>
		<g>
			<path class="st1" d="M744.06,133.99c0,1.59,0.06,3.18-0.01,4.77c-0.49,11.26-0.23,11.48,11.42,14.63
				c5.32,1.44,11.72,0.88,17.16-0.55c8.46-2.22,10.27-3.06,9.63-12.29c-0.15-2.18-0.02-4.37-0.02-6.56"/>
			<path class="st1" d="M763.14,115.51c2.98,1.09,6.03,1.54,8.93-0.04c2.79-1.52,4.13-6.27,2.38-8.29c-2.49-2.88-5.35-3.4-8.3-0.6
				c-0.71,0.67-1.21,1.57-1.81,2.37"/>
			<path class="st1" d="M740.63,124.42c0.88,4.98,5.1,6.91,9.96,7.89c3.69,0.74,7.18,2.13,10.76-0.11"/>
			<path class="st1" d="M748.23,112.52c-7.04,3.27-8.77,5.29-7.6,11.9"/>
			<path class="st1" d="M779.25,113.12c3.66,0.37,6.49,2.58,6.34,5.95c-0.16,3.64,1.83,8.51-3.36,10.74
				c-5.15,2.21-10.15,5.55-16.1,2.39"/>
			<path class="st1" d="M756.58,104.77c-3.37,1.49-6.64,3.43-5.25,7.72c1.17,3.6,6.48,4.62,10.07,3.12
				c2.61-1.09,0.88-3.62,2.46-4.98c-2.62-1.29-3.32-4.9-6.68-5.26"/>
			<path class="st1" d="M784.61,122.07c-5.81,3.79-12.81,4.13-19.08,6.56"/>
			<path class="st1" d="M741.67,122.07c5.45,2.74,10.93,5.34,17.3,4.77"/>
			<path class="st1" d="M766.72,137.57c0,4.97,0,9.94,0,14.91"/>
			<path class="st1" d="M760.16,139.36c0,4.37,0,8.75,0,13.12"/>
			<path class="st1" d="M766.13,119.68c1.12,2.51,0.4,5.17,0.6,7.75"/>
			<path class="st1" d="M760.16,121.47c0.66,2.34-1.88,5.22,1.19,7.16"/>
		</g>
	</g>
</g>
<g>
	<g>
		<g>
			<path class="st1" d="M762.26,227.36c0,1.59,0.06,3.18-0.01,4.77c-0.49,11.26-0.23,11.48,11.42,14.63
				c5.32,1.44,11.72,0.88,17.16-0.55c8.46-2.22,10.27-3.06,9.63-12.29c-0.15-2.18-0.02-4.37-0.02-6.56"/>
			<path class="st1" d="M781.34,208.87c2.98,1.09,6.03,1.54,8.93-0.04c2.79-1.52,4.13-6.27,2.38-8.29c-2.49-2.88-5.35-3.4-8.3-0.6
				c-0.71,0.67-1.21,1.57-1.81,2.37"/>
			<path class="st1" d="M758.83,217.79c0.88,4.98,5.1,6.91,9.96,7.89c3.69,0.74,7.18,2.13,10.76-0.11"/>
			<path class="st1" d="M766.43,205.89c-7.04,3.27-8.77,5.29-7.6,11.9"/>
			<path class="st1" d="M797.44,206.48c3.66,0.37,6.49,2.58,6.34,5.95c-0.16,3.64,1.83,8.51-3.36,10.74
				c-5.15,2.21-10.15,5.55-16.1,2.39"/>
			<path class="st1" d="M774.78,198.13c-3.37,1.49-6.64,3.43-5.25,7.72c1.17,3.6,6.48,4.62,10.07,3.12
				c2.61-1.09,0.88-3.62,2.46-4.98c-2.62-1.29-3.32-4.9-6.68-5.26"/>
			<path class="st1" d="M802.81,215.43c-5.81,3.79-12.81,4.13-19.08,6.56"/>
			<path class="st1" d="M759.87,215.43c5.45,2.74,10.93,5.34,17.3,4.77"/>
			<path class="st1" d="M784.92,230.93c0,4.97,0,9.94,0,14.91"/>
			<path class="st1" d="M778.36,232.72c0,4.37,0,8.75,0,13.12"/>
			<path class="st1" d="M784.32,213.04c1.12,2.51,0.4,5.17,0.6,7.75"/>
			<path class="st1" d="M778.36,214.83c0.66,2.34-1.88,5.22,1.19,7.16"/>
		</g>
	</g>
</g>
<g>
	<g>
		<g>
			<path class="st1" d="M657.03,107.09c0,1.59,0.06,3.18-0.01,4.77c-0.49,11.26-0.23,11.48,11.42,14.63
				c5.32,1.44,11.72,0.88,17.16-0.55c8.46-2.22,10.27-3.06,9.63-12.29c-0.15-2.18-0.02-4.37-0.02-6.56"/>
			<path class="st1" d="M676.11,88.6c2.98,1.09,6.03,1.54,8.93-0.04c2.79-1.52,4.13-6.27,2.38-8.29c-2.49-2.88-5.35-3.4-8.3-0.6
				c-0.71,0.67-1.21,1.57-1.81,2.37"/>
			<path class="st1" d="M653.6,97.52c0.88,4.98,5.1,6.91,9.96,7.89c3.69,0.74,7.18,2.13,10.76-0.11"/>
			<path class="st1" d="M661.2,85.62c-7.04,3.27-8.77,5.29-7.6,11.9"/>
			<path class="st1" d="M692.21,86.22c3.66,0.37,6.49,2.58,6.34,5.95c-0.16,3.64,1.83,8.51-3.36,10.74
				c-5.15,2.21-10.15,5.55-16.1,2.39"/>
			<path class="st1" d="M669.55,77.87c-3.37,1.49-6.64,3.43-5.25,7.72c1.17,3.6,6.48,4.62,10.07,3.12c2.61-1.09,0.88-3.62,2.46-4.98
				c-2.62-1.29-3.32-4.9-6.68-5.26"/>
			<path class="st1" d="M697.58,95.17c-5.81,3.79-12.81,4.13-19.08,6.56"/>
			<path class="st1" d="M654.64,95.17c5.45,2.74,10.93,5.34,17.3,4.77"/>
			<path class="st1" d="M679.69,110.67c0,4.97,0,9.94,0,14.91"/>
			<path class="st1" d="M673.13,112.46c0,4.37,0,8.75,0,13.12"/>
			<path class="st1" d="M679.09,92.78c1.12,2.51,0.4,5.17,0.6,7.75"/>
			<path class="st1" d="M673.13,94.57c0.66,2.34-1.88,5.22,1.19,7.16"/>
		</g>
	</g>
</g>
</svg>
